REM MD5 a5b808ff9be626b029a7271dae9f8d29
FILE "Euro Demo 87 (Europe).bin" BINARY
  TRACK 01 MODE2/2352
    INDEX 01 00:00:00
  TRACK 02 AUDIO
    INDEX 00 59:27:69
    INDEX 01 59:29:69
  TRACK 03 AUDIO
    INDEX 00 64:29:10
    INDEX 01 64:31:10
REM LEADOUT 67:32:42
